<svg id="Layer_1" data-name="Layer 1" xmlns="http://www.w3.org/2000/svg" viewBox="0 0 16 16"><defs><style>.cls-1{fill:#fff;}.cls-2{fill:#b8ae9b;}</style></defs><circle class="cls-1" cx="8" cy="8" r="8"/><path class="cls-2" d="M415.92,295.79v7.13h-2v-.85a2.66,2.66,0,0,1-1,.71,3.14,3.14,0,0,1-1.23.24,3,3,0,0,1-2.23-.8,3.22,3.22,0,0,1-.82-2.4v-4h2.06v3.72c0,1.15.49,1.72,1.45,1.72a1.56,1.56,0,0,0,1.19-.48,2,2,0,0,0,.45-1.44v-3.52Zm-5.62-1.24a.94.94,0,0,1,0-1.32A.92.92,0,0,1,411,293a.89.89,0,0,1,.66.25,1,1,0,0,1,0,1.32.89.89,0,0,1-.66.25A.92.92,0,0,1,410.3,294.55Zm2.68,0a1,1,0,0,1,0-1.32.92.92,0,0,1,.66-.25.91.91,0,1,1,0,1.82A.92.92,0,0,1,413,294.55Z" transform="translate(-404.31 -290)"/></svg>