<svg id="Layer_1" data-name="Layer 1" xmlns="http://www.w3.org/2000/svg" xmlns:xlink="http://www.w3.org/1999/xlink" viewBox="0 0 350 75"><defs><style>.cls-1{fill:none;}.cls-2{clip-path:url(#clip-path);}.cls-3{fill:#231f20;}.cls-4{fill:#b8ae9b;}</style><clipPath id="clip-path" transform="translate(-247.2 -263.69)"><rect class="cls-1" x="247.2" y="263.69" width="350" height="75"/></clipPath></defs><g class="cls-2"><rect class="cls-1" width="350" height="75"/><path class="cls-3" d="M277.77,313.09a11.94,11.94,0,0,1-4.82-4.43,12.83,12.83,0,0,1,0-12.87,11.94,11.94,0,0,1,4.82-4.43,14.8,14.8,0,0,1,7-1.6,13.4,13.4,0,0,1,6.68,1.6,9.43,9.43,0,0,1,4.17,4.56l-5.45,2.93a5.94,5.94,0,0,0-5.44-3.33,6.17,6.17,0,0,0-4.55,1.8,7.58,7.58,0,0,0,0,9.81,6.17,6.17,0,0,0,4.55,1.8,5.88,5.88,0,0,0,5.44-3.33l5.45,3a9.66,9.66,0,0,1-4.17,4.5,13.3,13.3,0,0,1-6.68,1.62A14.8,14.8,0,0,1,277.77,313.09Z" transform="translate(-247.2 -263.69)"/><path class="cls-3" d="M304,313.09a11.81,11.81,0,0,1-4.75-4.43,13,13,0,0,1,0-12.87,11.81,11.81,0,0,1,4.75-4.43,15.46,15.46,0,0,1,13.7,0,11.89,11.89,0,0,1,4.73,4.43,13,13,0,0,1,0,12.87,11.89,11.89,0,0,1-4.73,4.43,15.46,15.46,0,0,1-13.7,0Zm11.29-6a7.73,7.73,0,0,0,0-9.77,5.85,5.85,0,0,0-4.43-1.82,5.92,5.92,0,0,0-4.45,1.82,7.66,7.66,0,0,0,0,9.77,5.92,5.92,0,0,0,4.45,1.82A5.85,5.85,0,0,0,315.25,307.11Z" transform="translate(-247.2 -263.69)"/><path class="cls-3" d="M367,292.44q2.69,2.67,2.68,8v13.86h-7V301.55a6.61,6.61,0,0,0-1.19-4.3,4.22,4.22,0,0,0-3.4-1.42,5,5,0,0,0-3.91,1.6,6.9,6.9,0,0,0-1.44,4.75v12.15h-7V301.55q0-5.71-4.59-5.72a5,5,0,0,0-3.87,1.6,6.9,6.9,0,0,0-1.44,4.75v12.15h-7V290.12h6.7v2.79a8.83,8.83,0,0,1,3.31-2.34,11.13,11.13,0,0,1,4.3-.81,10.45,10.45,0,0,1,4.63,1,8.25,8.25,0,0,1,3.33,3,9.91,9.91,0,0,1,3.76-2.93,11.82,11.82,0,0,1,5-1A9.73,9.73,0,0,1,367,292.44Z" transform="translate(-247.2 -263.69)"/><path class="cls-3" d="M414.21,292.44c1.78,1.78,2.68,4.46,2.68,8v13.86h-7V301.55a6.55,6.55,0,0,0-1.2-4.3,4.19,4.19,0,0,0-3.39-1.42,5,5,0,0,0-3.92,1.6,6.9,6.9,0,0,0-1.44,4.75v12.15h-7V301.55q0-5.71-4.59-5.72a5,5,0,0,0-3.87,1.6,6.9,6.9,0,0,0-1.44,4.75v12.15h-7V290.12h6.71v2.79a8.87,8.87,0,0,1,3.3-2.34,11.16,11.16,0,0,1,4.3-.81,10.5,10.5,0,0,1,4.64,1,8.25,8.25,0,0,1,3.33,3,10,10,0,0,1,3.75-2.93,11.9,11.9,0,0,1,5-1A9.74,9.74,0,0,1,414.21,292.44Z" transform="translate(-247.2 -263.69)"/><path class="cls-3" d="M428.11,313.09a11.78,11.78,0,0,1-4.74-4.43,13,13,0,0,1,0-12.87,11.78,11.78,0,0,1,4.74-4.43,14.5,14.5,0,0,1,6.87-1.6,14.33,14.33,0,0,1,6.84,1.6,11.86,11.86,0,0,1,4.72,4.43,13,13,0,0,1,0,12.87,11.86,11.86,0,0,1-4.72,4.43,14.33,14.33,0,0,1-6.84,1.6A14.5,14.5,0,0,1,428.11,313.09Zm11.3-6a7.76,7.76,0,0,0,0-9.77,5.87,5.87,0,0,0-4.43-1.82,6,6,0,0,0-4.46,1.82,7.69,7.69,0,0,0,0,9.77,6,6,0,0,0,4.46,1.82A5.87,5.87,0,0,0,439.41,307.11Z" transform="translate(-247.2 -263.69)"/><path class="cls-3" d="M474.91,292.46q2.77,2.7,2.77,8v13.86h-7V301.55a6.33,6.33,0,0,0-1.26-4.3,4.65,4.65,0,0,0-3.65-1.42,5.55,5.55,0,0,0-4.22,1.65,6.74,6.74,0,0,0-1.58,4.88v12h-7V290.12h6.7V293a9.38,9.38,0,0,1,3.47-2.36,12.2,12.2,0,0,1,4.55-.83A10,10,0,0,1,474.91,292.46Z" transform="translate(-247.2 -263.69)"/><path class="cls-4" d="M509.27,290.12v20.16q0,6.66-3.47,9.9t-10.12,3.24a25.32,25.32,0,0,1-6.66-.86,14.56,14.56,0,0,1-5.22-2.47l2.79-5a11.39,11.39,0,0,0,3.87,2,15.24,15.24,0,0,0,4.68.74c2.43,0,4.22-.54,5.38-1.64a6.55,6.55,0,0,0,1.73-5v-1a9.83,9.83,0,0,1-7.65,3,12.93,12.93,0,0,1-6.1-1.46,11.2,11.2,0,0,1-4.38-4.12,12.37,12.37,0,0,1,0-12.24,11.2,11.2,0,0,1,4.38-4.12,12.93,12.93,0,0,1,6.1-1.46q5.26,0,8,3.46v-3.1Zm-8.71,15.64a6.08,6.08,0,0,0,0-8.6,7.2,7.2,0,0,0-9.15,0,6,6,0,0,0,0,8.6,7.2,7.2,0,0,0,9.15,0Z" transform="translate(-247.2 -263.69)"/><path class="cls-4" d="M540.18,290.12v24.21h-6.65v-2.88a9.56,9.56,0,0,1-3.33,2.41,10.62,10.62,0,0,1-4.19.83,10.31,10.31,0,0,1-7.56-2.75c-1.86-1.82-2.79-4.54-2.79-8.14V290.12h7v12.64q0,5.85,4.9,5.85a5.25,5.25,0,0,0,4-1.64,6.92,6.92,0,0,0,1.54-4.88v-12Zm-19.08-4.21a3.23,3.23,0,0,1,0-4.45,3.11,3.11,0,0,1,2.25-.88,3.11,3.11,0,1,1,0,6.21A3.11,3.11,0,0,1,521.1,285.91Zm9.12,0a3.11,3.11,0,0,1,2.23-5.33,3.11,3.11,0,0,1,2.25.88,3.23,3.23,0,0,1,0,4.45,3.11,3.11,0,0,1-2.25.88A3,3,0,0,1,530.22,285.91Z" transform="translate(-247.2 -263.69)"/><path class="cls-4" d="M571.37,280.94v33.39h-6.71v-2.79q-2.61,3.15-7.56,3.15a12.53,12.53,0,0,1-6.18-1.53,11,11,0,0,1-4.35-4.37,14.53,14.53,0,0,1,0-13.14,10.93,10.93,0,0,1,4.35-4.36,12.53,12.53,0,0,1,6.18-1.53,9.22,9.22,0,0,1,7.25,2.92V280.94Zm-8.64,26.17a7.69,7.69,0,0,0,0-9.77,5.88,5.88,0,0,0-4.41-1.82,6,6,0,0,0-4.46,1.82,7.69,7.69,0,0,0,0,9.77,6,6,0,0,0,4.46,1.82A5.88,5.88,0,0,0,562.73,307.11Z" transform="translate(-247.2 -263.69)"/></g></svg>