<svg id="Layer_1" data-name="Layer 1" xmlns="http://www.w3.org/2000/svg" viewBox="0 0 118.61 164.98"><defs><style>.cls-1{fill:#b8ae9b;}</style></defs><path class="cls-1" d="M365.8,360.05V477.14H333.59V463.22a45,45,0,0,1-16.1,11.64,50.81,50.81,0,0,1-20.25,4q-23.07,0-36.56-13.28t-13.49-39.39V360.05h33.95v61.16q0,28.29,23.72,28.29,12.19,0,19.59-7.94t7.4-23.62V360.05ZM273.52,339.7a15.52,15.52,0,0,1,0-21.55,15,15,0,0,1,10.88-4.24,15,15,0,1,1,0,30A15,15,0,0,1,273.52,339.7Zm44.08,0a15,15,0,0,1,10.77-25.79,15,15,0,0,1,10.88,4.24,15.52,15.52,0,0,1,0,21.55,15,15,0,0,1-10.88,4.24A14.56,14.56,0,0,1,317.6,339.7Z" transform="translate(-247.19 -313.91)"/></svg>